<?xml version="1.0" encoding="utf-8"?>
<!-- Generator: Adobe Illustrator 21.1.0, SVG Export Plug-In . SVG Version: 6.00 Build 0)  -->
<svg version="1.1" id="Layer_1" xmlns="http://www.w3.org/2000/svg" xmlns:xlink="http://www.w3.org/1999/xlink" x="0px" y="0px"
	 viewBox="0 0 200 80" style="enable-background:new 0 0 200 80;" xml:space="preserve">
<style type="text/css">
	.st0{fill:#353535;}
	.st1{fill:#46BEDC;}
	.st2{fill:#724091;}
	.st3{fill:url(#SVGID_1_);}
	.st4{fill:url(#SVGID_2_);}
</style>
<g>
	<g>
		<g>
			<path class="st0" d="M122.9,33.6c0,1.9-0.3,3.6-1,5.2c-0.6,1.6-1.5,2.9-2.7,4.1s-2.6,2.1-4.2,2.7c-1.6,0.6-3.5,1-5.5,1l-10,0
				l0-25.8l10,0c2,0,3.8,0.3,5.5,1c1.6,0.6,3.1,1.5,4.2,2.7c1.2,1.1,2.1,2.5,2.7,4.1C122.6,30,122.9,31.7,122.9,33.6z M116.7,33.6
				c0-1.3-0.2-2.4-0.5-3.5c-0.3-1-0.8-1.9-1.4-2.6c-0.6-0.7-1.4-1.3-2.3-1.6c-0.9-0.4-1.9-0.6-3.1-0.6l-4,0l0,16.6l4,0
				c1.1,0,2.2-0.2,3.1-0.6c0.9-0.4,1.7-0.9,2.3-1.7c0.6-0.7,1.1-1.6,1.4-2.6C116.6,36,116.8,34.9,116.7,33.6z"/>
			<path class="st0" d="M151.5,46.4l-4.6,0c-0.5,0-0.9-0.1-1.3-0.4c-0.3-0.2-0.6-0.6-0.7-0.9l-1.5-4.5l-9.8,0l-1.5,4.5
				c-0.1,0.3-0.4,0.6-0.7,0.9c-0.3,0.3-0.8,0.4-1.2,0.4l-4.7,0l9.9-25.8l6.1,0L151.5,46.4z M142,36.6l-2.4-7.1
				c-0.2-0.4-0.4-1-0.6-1.6c-0.2-0.6-0.4-1.3-0.6-2c-0.2,0.7-0.4,1.4-0.6,2c-0.2,0.6-0.4,1.1-0.6,1.6l-2.4,7L142,36.6z"/>
			<path class="st0" d="M172.4,25.3l-7.3,0l0,21.1l-6,0l0-21.1l-7.3,0l0-4.7l20.5,0L172.4,25.3z"/>
			<path class="st0" d="M199,46.4l-4.6,0c-0.5,0-0.9-0.1-1.3-0.4c-0.3-0.2-0.6-0.6-0.7-0.9l-1.5-4.5l-9.8,0l-1.5,4.5
				c-0.1,0.3-0.4,0.6-0.7,0.9c-0.3,0.3-0.8,0.4-1.2,0.4l-4.7,0l9.9-25.8l6.1,0L199,46.4z M189.4,36.5l-2.4-7.1
				c-0.2-0.4-0.4-1-0.6-1.6c-0.2-0.6-0.4-1.3-0.6-2c-0.2,0.7-0.4,1.4-0.6,2c-0.2,0.6-0.4,1.1-0.6,1.6l-2.4,7L189.4,36.5z"/>
		</g>
		<g>
			<path class="st0" d="M101.3,50.6v3h3.8v1.5h-3.8v4.1h-1.9V49.1h6.4v1.5H101.3z"/>
			<path class="st0" d="M125.1,59.3h-1.7c-0.3,0-0.6-0.1-0.7-0.4l-2.1-3.2c-0.1-0.1-0.2-0.2-0.3-0.3s-0.2-0.1-0.4-0.1h-0.8v4h-1.9
				V49.1h3.1c0.7,0,1.3,0.1,1.8,0.2c0.5,0.1,0.9,0.3,1.2,0.6c0.3,0.3,0.5,0.6,0.7,0.9c0.1,0.4,0.2,0.8,0.2,1.2c0,0.3-0.1,0.7-0.2,1
				c-0.1,0.3-0.2,0.6-0.4,0.8c-0.2,0.2-0.4,0.5-0.7,0.7c-0.3,0.2-0.6,0.3-1,0.4c0.1,0.1,0.2,0.2,0.3,0.2c0.1,0.1,0.2,0.2,0.3,0.3
				L125.1,59.3z M120.3,53.9c0.4,0,0.7,0,0.9-0.1c0.3-0.1,0.5-0.2,0.7-0.4c0.2-0.2,0.3-0.3,0.4-0.6c0.1-0.2,0.1-0.5,0.1-0.7
				c0-0.5-0.2-0.9-0.5-1.2c-0.3-0.3-0.9-0.4-1.6-0.4h-1.2v3.4H120.3z"/>
			<path class="st0" d="M138,50.6v2.8h3.5v1.5H138v2.9h4.5v1.5h-6.4V49.1h6.4v1.5H138z"/>
			<path class="st0" d="M162.6,59.3h-1.5c-0.2,0-0.3,0-0.4-0.1c-0.1-0.1-0.2-0.2-0.2-0.3l-0.8-2.1h-4.2l-0.8,2.1
				c0,0.1-0.1,0.2-0.2,0.3c-0.1,0.1-0.2,0.1-0.4,0.1h-1.5l4-10.1h1.9L162.6,59.3z M159.3,55.4l-1.2-3.4c-0.1-0.1-0.1-0.3-0.2-0.5
				c-0.1-0.2-0.1-0.4-0.2-0.7c-0.1,0.2-0.1,0.5-0.2,0.7c-0.1,0.2-0.1,0.4-0.2,0.5l-1.2,3.4H159.3z"/>
			<path class="st0" d="M175.4,53.4h0.4c0.2,0,0.3,0,0.4-0.1c0.1,0,0.2-0.1,0.3-0.2l2.8-3.5c0.1-0.1,0.2-0.3,0.4-0.3
				c0.1-0.1,0.3-0.1,0.5-0.1h1.6l-3.4,4.2c-0.2,0.3-0.4,0.4-0.6,0.5c0.2,0.1,0.3,0.1,0.4,0.2c0.1,0.1,0.2,0.2,0.4,0.4l3.5,4.7h-1.7
				c-0.2,0-0.4,0-0.5-0.1c-0.1-0.1-0.2-0.2-0.3-0.3l-2.9-3.7c-0.1-0.1-0.2-0.2-0.3-0.3c-0.1-0.1-0.3-0.1-0.5-0.1h-0.6v4.5h-1.9V49.1
				h1.9V53.4z"/>
			<path class="st0" d="M198.3,51c-0.1,0.1-0.1,0.2-0.2,0.2c-0.1,0-0.1,0.1-0.2,0.1c-0.1,0-0.2,0-0.3-0.1c-0.1-0.1-0.3-0.2-0.4-0.2
				c-0.2-0.1-0.3-0.2-0.6-0.2c-0.2-0.1-0.5-0.1-0.8-0.1c-0.3,0-0.5,0-0.7,0.1c-0.2,0.1-0.4,0.2-0.5,0.3c-0.1,0.1-0.2,0.2-0.3,0.4
				c-0.1,0.2-0.1,0.3-0.1,0.5c0,0.2,0.1,0.4,0.2,0.6c0.1,0.2,0.3,0.3,0.5,0.4c0.2,0.1,0.5,0.2,0.8,0.3c0.3,0.1,0.6,0.2,0.9,0.3
				c0.3,0.1,0.6,0.2,0.9,0.4c0.3,0.1,0.5,0.3,0.8,0.5c0.2,0.2,0.4,0.5,0.5,0.7c0.1,0.3,0.2,0.7,0.2,1.1c0,0.5-0.1,0.9-0.2,1.3
				c-0.2,0.4-0.4,0.7-0.7,1s-0.7,0.5-1.1,0.7c-0.4,0.2-0.9,0.3-1.5,0.3c-0.3,0-0.6,0-1-0.1c-0.3-0.1-0.6-0.2-0.9-0.3
				c-0.3-0.1-0.6-0.3-0.8-0.4c-0.3-0.2-0.5-0.3-0.7-0.5l0.6-0.9c0-0.1,0.1-0.1,0.2-0.2c0.1,0,0.2-0.1,0.2-0.1c0.1,0,0.2,0,0.4,0.1
				c0.1,0.1,0.3,0.2,0.5,0.3c0.2,0.1,0.4,0.2,0.7,0.3c0.3,0.1,0.6,0.1,0.9,0.1c0.5,0,1-0.1,1.2-0.4s0.4-0.6,0.4-1.1
				c0-0.3-0.1-0.5-0.2-0.7c-0.1-0.2-0.3-0.3-0.5-0.4c-0.2-0.1-0.5-0.2-0.8-0.3c-0.3-0.1-0.6-0.2-0.9-0.3c-0.3-0.1-0.6-0.2-0.9-0.3
				c-0.3-0.1-0.5-0.3-0.8-0.5c-0.2-0.2-0.4-0.5-0.5-0.8c-0.1-0.3-0.2-0.7-0.2-1.2c0-0.4,0.1-0.7,0.2-1.1c0.1-0.4,0.4-0.7,0.6-0.9
				c0.3-0.3,0.6-0.5,1-0.7c0.4-0.2,0.9-0.2,1.4-0.2c0.6,0,1.2,0.1,1.7,0.3c0.5,0.2,0.9,0.4,1.3,0.8L198.3,51z"/>
		</g>
	</g>
	<g>
		<path class="st1" d="M16.1,29.6c0,0.1,0,0.3,0,0.4h0L16.1,29.6L16.1,29.6z"/>
		<path class="st1" d="M16.1,29.6c0,0.1,0,0.3,0,0.4h0L16.1,29.6L16.1,29.6z"/>
		<path class="st1" d="M16.1,29.6c0,0.1,0,0.3,0,0.4h0L16.1,29.6L16.1,29.6z"/>
		<path class="st1" d="M48.1,31.4L48.1,31.4C48.1,31.4,48.1,31.4,48.1,31.4C48.1,31.4,48.1,31.4,48.1,31.4z"/>
		<path class="st2" d="M63.4,35.8c-2.4,0-4.3,1.9-4.3,4.3c0,2.4,1.9,4.3,4.3,4.3c2.4,0,4.3-1.9,4.3-4.3
			C67.7,37.7,65.8,35.8,63.4,35.8z M54.5,39.9c0-0.7,0.1-1.4,0.2-2.1c-0.5,2.6-1.2,5.2-2.3,7.5c2.9,4,7.2,7,12.1,8.3
			c0.1,0,0.2,0,0.2,0.1c0,0,0,0,0,0c0.4,0.1,0.8,0.2,1.2,0.3C59.4,52.6,54.5,46.8,54.5,39.9z"/>
		<path class="st1" d="M48.1,31.4L48.1,31.4C48.1,31.4,48.1,31.4,48.1,31.4C48.1,31.4,48.1,31.4,48.1,31.4z"/>
		<path class="st1" d="M16.1,29.6c0,0.1,0,0.3,0,0.4h0L16.1,29.6L16.1,29.6z"/>
		<path class="st2" d="M27.2,40.1c0,2.4,1.9,4.3,4.3,4.3c2.4,0,4.3-1.9,4.3-4.3c0-2.4-1.9-4.3-4.3-4.3
			C29.1,35.8,27.2,37.7,27.2,40.1z M29,54c0.4-0.1,0.8-0.2,1.2-0.3c0,0,0,0,0,0c0.1,0,0.2,0,0.2-0.1c4.9-1.3,9.1-4.3,12.1-8.3
			c-1.1-2.4-1.9-4.9-2.3-7.5c0.1,0.7,0.2,1.4,0.2,2.1C40.4,46.8,35.5,52.6,29,54z"/>
		<path class="st1" d="M5.5,41.2c0,2.4,1.9,4.3,4.3,4.3h6.3c0,0,0,13.3,0,13.3c0,0,0,0,0,0.1c0,0.9,0.3,1.8,0.8,2.5
			c0.5,0.7,1.1,1.2,1.9,1.4c0.7,0.2,1.4,0.3,2,0.3c1.1,0.1,2.1,0.2,3.2,0.2h0.1c0.1,0,0.2,0,0.2,0c2.6,0,5.2-0.3,7.6-1c0,0,0,0,0,0
			c0.5-0.1,0.9-0.2,1.4-0.4c4.4-1.3,8.3-3.6,11.7-6.6c0.8-0.8,1.7-1.6,2.4-2.4c0.2-0.3,0.4-0.5,0.7-0.8c0.4-0.5,0.7-0.9,1.1-1.4
			c1.2-1.7,2.3-3.5,3.2-5.4c1.1-2.3,1.8-4.8,2.3-7.4c0-0.2,0.1-0.4,0.1-0.6c0,0,0,0,0,0c1.3-6.6,7.1-11.6,14.1-11.6
			c0.4,0,0.9,0,1.3,0.1c0,0,0,4.3,0,4.3c0,0,0,0,0,0.1c0,2.4,1.9,4.3,4.3,4.3c2.4,0,4.3-1.9,4.3-4.3c0,0,0,0,0-0.1
			c0-0.1,0-0.3,0-0.4l0,0v-4.3c0,0,10.7,0,10.7,0c0,0,0,0,0.1,0c0.1,0,0.2,0,0.3,0c0.4,0,0.8-0.1,1.1-0.2c0.3-0.1,0.7-0.3,1-0.5
			c1.1-0.8,1.9-2.1,1.9-3.5c0-2.4-1.9-4.3-4.3-4.3H71c-0.3,0-0.6,0-0.8,0c-6.3,0.2-12.1,2.8-16.4,6.8c-2.4,2.2-4.3,4.9-5.7,7.9
			c0,0,0,0,0,0c-0.2,0.5-0.4,1-0.6,1.5c-0.8,2.1-1.2,4.3-1.9,6.4c-0.7,2.2-1.7,4.1-3.1,6c-2.9,4-7.2,7-12.1,8.3
			c-0.1,0-0.2,0-0.2,0.1c0,0,0,0,0,0c-0.4,0.1-0.8,0.2-1.2,0.3c0,0,0,0,0,0c-0.1,0-0.3,0-0.4,0.1c-0.1,0-0.3,0-0.4,0.1
			c-0.7,0.1-1.4,0.2-2.1,0.2c-0.4,0-0.9,0-1.3-0.1V36.9c0,0-14.9,0-14.9,0c0,0,0,0-0.1,0C7.4,36.9,5.5,38.9,5.5,41.2z"/>
		<linearGradient id="SVGID_1_" gradientUnits="userSpaceOnUse" x1="49.7745" y1="43.0121" x2="53.7188" y2="29.1034">
			<stop  offset="0" style="stop-color:#006486"/>
			<stop  offset="1" style="stop-color:#46BEDC"/>
		</linearGradient>
		<path class="st3" d="M53,24.2c0,0-3,2.5-6.1,9.8c-2.4,4.8,1.9,10.4,1.9,10.4l3.3,1.4c0,0,2.1-4.2,2.5-7.9c0.2-1.2,0.7-4.9,4.5-8.4
			C55.7,25.3,53,24.2,53,24.2z"/>
		<linearGradient id="SVGID_2_" gradientUnits="userSpaceOnUse" x1="45.3193" y1="46.3187" x2="38.5726" y2="54.7263">
			<stop  offset="0" style="stop-color:#006486"/>
			<stop  offset="1" style="stop-color:#46BEDC"/>
		</linearGradient>
		<path class="st4" d="M32.7,52.9c0,0,6.1-2,10.6-8.5c3.7,2.2,5.5,6.5,5.5,6.5s-3.6,6.8-13.3,10.4C34.2,60.6,32.4,54.9,32.7,52.9z"
			/>
		<path class="st1" d="M89.4,41.2c0,2.4-1.9,4.3-4.3,4.3h-6.3c0,0,0,13.3,0,13.3c0,0,0,0,0,0.1c0,0.9-0.3,1.8-0.8,2.5
			c-0.5,0.7-1.1,1.2-1.9,1.4c-0.7,0.2-1.4,0.3-2,0.3c-1.1,0.1-2.1,0.2-3.2,0.2h-0.1c-0.1,0-0.2,0-0.2,0c-2.6,0-5.2-0.3-7.6-1
			c0,0,0,0,0,0c-0.5-0.1-0.9-0.2-1.4-0.4c-4.4-1.3-8.3-3.6-11.7-6.6c-0.8-0.8-1.7-1.6-2.4-2.4c-0.2-0.3-0.4-0.5-0.7-0.8
			c-0.4-0.5-0.7-0.9-1.1-1.4c-1.2-1.7-2.3-3.5-3.2-5.4c-1.1-2.3-1.8-4.8-2.3-7.4c0-0.2-0.1-0.4-0.1-0.6c0,0,0,0,0,0
			C38.9,30.6,33,25.6,26,25.6c-0.4,0-0.9,0-1.3,0.1c0,0,0,4.3,0,4.3c0,0,0,0,0,0.1c0,2.4-1.9,4.3-4.3,4.3c-2.4,0-4.3-1.9-4.3-4.3
			c0,0,0,0,0-0.1c0-0.1,0-0.3,0-0.4l0,0v-4.3c0,0-10.7,0-10.7,0c0,0,0,0-0.1,0c-0.1,0-0.2,0-0.3,0c-0.4,0-0.8-0.1-1.1-0.2
			c-0.3-0.1-0.7-0.3-1-0.5C1.7,23.7,1,22.4,1,20.9c0-2.4,1.9-4.3,4.3-4.3h18.6c0.3,0,0.6,0,0.8,0c6.3,0.2,12.1,2.8,16.4,6.8
			c2.4,2.2,4.3,4.9,5.7,7.9c0,0,0,0,0,0c0.2,0.5,0.4,1,0.6,1.5c0.4,1.1,0.8,2.3,1,3.5c0,0,0,0,0,0.1c0,0.2,0.1,0.3,0.1,0.5
			c0,0,0,0,0,0c0.1,0.6,0.3,1.1,0.4,1.7c0.7,2.4,1.9,4.6,3.3,6.6c2.9,4,7.2,7,12.1,8.3c0.1,0,0.2,0,0.2,0.1c0,0,0,0,0,0
			c0.4,0.1,0.8,0.2,1.2,0.3c0,0,0,0,0,0c0.1,0,0.3,0,0.4,0.1c0.1,0,0.3,0,0.4,0.1c0.7,0.1,1.4,0.2,2.1,0.2c0.4,0,0.9,0,1.3-0.1V36.9
			c0,0,14.9,0,14.9,0c0,0,0,0,0.1,0C87.5,36.9,89.4,38.9,89.4,41.2z"/>
	</g>
</g>
</svg>
